<?xml version="1.0" encoding="UTF-8"?>
<svg id="Layer_1" data-name="Layer 1" xmlns="http://www.w3.org/2000/svg" viewBox="0 0 1024 294">
  <defs>
    <style>
      .cls-1 {
        fill: #1dbf73;
      }

      .cls-1, .cls-2 {
        stroke-width: 0px;
      }

      .cls-2 {
        fill: #7a7879;
      }
    </style>
  </defs>
  <path class="cls-2" d="M737.73,24.06c-7.64-2.49-18.17-3.73-31.57-3.73s-23.17,1.25-30.69,3.73c-7.53,2.49-12.7,8.59-15.52,18.3l-71.61,243.51c0,1.49.94,2.24,2.82,2.24h45.86c2.35,0,3.88-1.24,4.59-3.74l18.7-63.86c.7-2.74,2.23-4.11,4.59-4.11h82.9c2.35,0,3.88,1.25,4.59,3.73l18.7,64.61c.71,2.24,2.23,3.36,4.59,3.36h46.21c1.64,0,2.47-.75,2.47-2.24l-70.91-243.51c-2.82-9.71-8.06-15.81-15.7-18.3ZM732.61,165.24h-52.56c-1.89,0-2.82-.87-2.82-2.61,0-.25.06-.5.18-.75.11-.24.17-.62.17-1.12l24.7-85.15c1.41-4.48,2.7-6.72,3.88-6.72s2,.44,2.47,1.31c.47.87,1.06,2.68,1.77,5.41l24.69,85.15c0,.5.06.88.18,1.12.11.25.18.5.18.75,0,1.75-.94,2.61-2.82,2.61Z"/>
  <path class="cls-2" d="M1020.47,20.33h-123.47c-7.29,0-14.06,1.06-20.28,3.17-6.24,2.12-11.64,5.23-16.23,9.34-4.59,4.11-8.17,9.28-10.76,15.5-2.59,6.23-3.88,13.57-3.88,22.03v214.01c0,2.49,1.17,3.74,3.53,3.74h44.1c2.35,0,3.53-1.24,3.53-3.74v-102.33c0-2.74,1.17-4.11,3.53-4.11h108.3c2.35,0,3.53-1.24,3.53-3.73v-41.09c0-2.49-1.18-3.73-3.53-3.73h-108.3c-2.35,0-3.53-1.37-3.53-4.11v-35.48c0-6.72,1.23-11.89,3.7-15.5,2.47-3.61,6.88-5.42,13.23-5.42h106.54c2.35,0,3.53-1.24,3.53-3.73V24.06c0-2.49-1.18-3.73-3.53-3.73Z"/>
  <g>
    <path class="cls-2" d="M214.35,58.94c14.7,0,27.12-12.24,27.12-26.72s-12.17-26.33-27.12-26.33-26.72,12.06-26.72,26.33,12.24,26.72,26.72,26.72Z"/>
    <path class="cls-2" d="M300.58,218.24c.02-1.03.03-2.05.03-3.05h-.1c-.17-5.82-.47-9.77-.49-9.77.07-1.59.13-3.18.13-4.83v-61.08c0-19.03-6.66-35.11-19.84-47.85-15.44-14.59-37.63-21.99-65.96-21.99-50.43,0-83.01,27.41-83.01,69.84,0,23.22,4.36,39.74,13.41,50.61,11,12.76,30.38,19.22,57.61,19.22,15.26,0,30.63.53,45.86-.33.84-.05,1.73-.08,2.45.35,1,.6,1.22,3.08,1.16,5.82h-.56c0,.08-.01.18-.01.25-.12,3.55-.37,7.11-.41,10.67-.02,1.91-.04,3.85-.68,5.65-4.5,12.78-24.37,10.41-34.64,10.41H83.02c-22.89,0-33.55-10.54-33.55-33.15v-79.28L0,172v41.02c0,44.64,31.28,74.63,77.82,74.63h142.91c25.19,0,44.22-4.55,56.62-13.53,7.79-5.73,13.59-13.43,17.4-23.02,3.98-6.08,5.38-18.41,5.75-29.7h.11c0-1.08-.02-2.14-.03-3.15ZM250.29,165.49h-39.53c-20.66,0-25.6-2.67-26.12-3.04-.9-.9-3.84-5.14-3.84-21.74,0-11.91,3.81-25.57,33.55-25.57,31.86,0,35.94,13.66,35.94,25.57v24.77Z"/>
  </g>
  <path class="cls-2" d="M493.02,287c-.5-.75-.88-1.37-1.12-1.87l-24.14-43.06h-75.87c-8.24-.52-11.57-4.3-11.57-13.09V20.05h-49.86v210.14c0,35.44,22.48,57.46,58.66,57.46h104.61c-.27-.17-.51-.36-.7-.65Z"/>
  <path class="cls-1" d="M553.15,283.26l-72.46-124c-.5-.74-1.19-1.99-2.06-3.73-.87-1.74-1.31-2.99-1.31-3.73,0-.5.56-1.74,1.68-3.74,1.12-1.99,1.93-3.23,2.43-3.74l69.47-119.14c.99-1.74,1.24-2.99.75-3.74-.5-.74-1.12-1.12-1.87-1.12h-56.77c-1,0-1.75.37-2.24,1.12-.5.75-.88,1.37-1.12,1.87l-56.4,101.96c-2.49,4.73-4.48,8.59-5.98,11.58-1.49,2.99-2.61,5.54-3.36,7.66-.75,2.12-1.25,3.74-1.49,4.86-.25,1.12-.37,2.18-.37,3.17,0,5.73,3.73,15.07,11.2,28.01l34.49,61.52,24.14,43.06c.25.5.62,1.12,1.12,1.87.19.28.43.48.7.65.13.08.26.17.4.23h58.8c.36-.18.69-.45.97-.88.5-.75.24-1.99-.75-3.74Z"/>
</svg>